<?xml version="1.0" standalone="no"?>
<!DOCTYPE svg PUBLIC "-//W3C//DTD SVG 20010904//EN"
 "http://www.w3.org/TR/2001/REC-SVG-20010904/DTD/svg10.dtd">
<svg version="1.0" xmlns="http://www.w3.org/2000/svg"
 width="207.000000pt" height="226.000000pt" viewBox="0 0 207.000000 226.000000"
 preserveAspectRatio="xMidYMid meet">

<g transform="translate(0.000000,226.000000) scale(0.100000,-0.100000)"
fill="#000000" stroke="none">
<path d="M935 2175 c-114 -26 -140 -34 -220 -71 -324 -150 -552 -442 -614
-788 -16 -87 -13 -261 5 -357 75 -401 381 -723 789 -832 110 -29 352 -31 470
-3 154 36 342 132 454 233 l55 49 -19 25 c-10 13 -34 37 -52 52 l-33 29 -53
-48 c-128 -112 -290 -181 -483 -204 -380 -47 -752 162 -913 512 -21 46 -41 97
-45 113 -4 17 -10 39 -13 50 -18 74 -26 225 -16 314 16 139 75 304 139 388 13
17 24 36 24 41 0 20 158 170 226 215 75 49 177 94 279 123 67 19 344 29 392
14 121 -37 176 -56 229 -80 76 -34 205 -127 198 -143 -6 -18 -161 -157 -173
-157 -6 0 -42 20 -79 45 -143 95 -338 129 -495 86 -204 -56 -364 -190 -444
-371 -28 -62 -27 -59 -49 -155 -40 -175 24 -390 158 -539 l61 -67 27 29 c14
16 36 42 48 57 l22 28 -44 47 c-92 98 -131 216 -124 369 7 117 31 188 97 274
118 157 329 224 548 173 50 -11 140 -65 192 -114 31 -29 61 -58 68 -64 13 -10
48 20 299 257 l105 100 -73 72 c-144 143 -301 236 -478 284 -107 28 -368 36
-465 14z"/>
</g>
</svg>
